<svg width="16" height="9" viewBox="0 0 16 9" fill="none" xmlns="http://www.w3.org/2000/svg">
<path d="M1.175 0.362503C1.3625 0.175003 1.5845 0.0812531 1.841 0.0812531C2.097 0.0812531 2.31875 0.175003 2.50625 0.362503L8 5.85625L13.5125 0.343753C13.6875 0.168753 13.9062 0.0812531 14.1687 0.0812531C14.4312 0.0812531 14.6562 0.175003 14.8438 0.362503C15.0312 0.550003 15.125 0.772003 15.125 1.0285C15.125 1.2845 15.0312 1.50625 14.8438 1.69375L8.525 7.99375C8.45 8.06875 8.36875 8.122 8.28125 8.1535C8.19375 8.1845 8.1 8.2 8 8.2C7.9 8.2 7.80625 8.1845 7.71875 8.1535C7.63125 8.122 7.55 8.06875 7.475 7.99375L1.15625 1.675C0.98125 1.5 0.893749 1.2845 0.893749 1.0285C0.893749 0.772003 0.987499 0.550003 1.175 0.362503Z" fill="white"/>
</svg>
