<svg width="16" height="16" viewBox="0 0 16 16" fill="none" xmlns="http://www.w3.org/2000/svg">
<path d="M15.35 0.661668C15.2421 0.553514 15.1139 0.467709 14.9727 0.409164C14.8316 0.350619 14.6803 0.320483 14.5275 0.320483C14.3747 0.320483 14.2234 0.350619 14.0823 0.409164C13.9412 0.467709 13.8129 0.553514 13.705 0.661668L8.00002 6.355L2.29502 0.650001C2.187 0.541989 2.05878 0.456309 1.91765 0.397853C1.77653 0.339397 1.62527 0.309311 1.47252 0.309311C1.31976 0.309311 1.16851 0.339397 1.02738 0.397853C0.886258 0.456309 0.758029 0.541989 0.650017 0.650001C0.542004 0.758014 0.456324 0.886243 0.397868 1.02737C0.339413 1.16849 0.309326 1.31975 0.309326 1.4725C0.309326 1.62525 0.339413 1.77651 0.397868 1.91764C0.456324 2.05876 0.542004 2.18699 0.650017 2.295L6.35502 8L0.650017 13.705C0.542004 13.813 0.456324 13.9412 0.397868 14.0824C0.339413 14.2235 0.309326 14.3747 0.309326 14.5275C0.309326 14.6803 0.339413 14.8315 0.397868 14.9726C0.456324 15.1138 0.542004 15.242 0.650017 15.35C0.758029 15.458 0.886258 15.5437 1.02738 15.6021C1.16851 15.6606 1.31976 15.6907 1.47252 15.6907C1.62527 15.6907 1.77653 15.6606 1.91765 15.6021C2.05878 15.5437 2.187 15.458 2.29502 15.35L8.00002 9.645L13.705 15.35C13.813 15.458 13.9413 15.5437 14.0824 15.6021C14.2235 15.6606 14.3748 15.6907 14.5275 15.6907C14.6803 15.6907 14.8315 15.6606 14.9726 15.6021C15.1138 15.5437 15.242 15.458 15.35 15.35C15.458 15.242 15.5437 15.1138 15.6022 14.9726C15.6606 14.8315 15.6907 14.6803 15.6907 14.5275C15.6907 14.3747 15.6606 14.2235 15.6022 14.0824C15.5437 13.9412 15.458 13.813 15.35 13.705L9.64502 8L15.35 2.295C15.7933 1.85167 15.7933 1.105 15.35 0.661668Z" fill="white"/>
</svg>
