<svg width="60" height="66" viewBox="0 0 60 66" fill="none" xmlns="http://www.w3.org/2000/svg">
<path d="M6.9988 47.1596C8.68538 47.1596 10.0651 45.7798 10.0651 44.0933V18.8651C10.0651 17.1785 11.445 15.7988 13.1315 15.7988H28.1843M39.4742 15.7988H54.5278C56.2143 15.7988 57.5941 17.1788 57.5941 18.8651V44.0933C57.5942 45.7796 56.2142 47.1596 54.5278 47.1596H5.46551C3.77917 47.1596 2.39917 45.7797 2.39917 44.0931C2.39917 30.8055 2.39917 18.3539 2.39917 5.06634C2.39917 3.37988 3.77892 2 5.46551 2H14.914C16.8688 2 18.0934 2.84486 18.9588 4.53709L20.7976 8.13267H48.3948C50.0814 8.13267 51.4613 9.51318 51.4613 11.199V15.1715" stroke="white" stroke-opacity="0.5" stroke-width="3" stroke-miterlimit="22.9256" stroke-linecap="round" stroke-linejoin="round"/>
<path d="M30.426 63.6942C32.4911 63.459 33.9745 61.5941 33.7392 59.529C33.5039 57.4639 31.6391 55.9805 29.5739 56.2158C27.5088 56.4511 26.0254 58.3159 26.2607 60.381C26.496 62.4461 28.3608 63.9295 30.426 63.6942Z" stroke="white" stroke-opacity="0.5" stroke-width="3" stroke-miterlimit="22.9256" stroke-linecap="round" stroke-linejoin="round"/>
<path d="M29.9966 47.7867V55.5644" stroke="white" stroke-opacity="0.5" stroke-width="3" stroke-miterlimit="22.9256" stroke-linecap="round" stroke-linejoin="round"/>
<path d="M6.59124 63.6951C8.65636 63.4598 10.1397 61.595 9.90446 59.5299C9.66919 57.4648 7.80435 55.9814 5.73923 56.2167C3.67411 56.4519 2.19073 58.3168 2.42601 60.3819C2.66128 62.447 4.52612 63.9304 6.59124 63.6951Z" stroke="white" stroke-opacity="0.5" stroke-width="3" stroke-miterlimit="22.9256" stroke-linecap="round" stroke-linejoin="round"/>
<path d="M10.4587 59.955H18.0795V47.7867" stroke="white" stroke-opacity="0.5" stroke-width="3" stroke-miterlimit="22.9256" stroke-linecap="round" stroke-linejoin="round"/>
<path d="M54.2608 63.6931C56.3259 63.4578 57.8093 61.593 57.574 59.5279C57.3387 57.4627 55.4739 55.9794 53.4088 56.2146C51.3437 56.4499 49.8603 58.3147 50.0956 60.3799C50.3308 62.445 52.1957 63.9284 54.2608 63.6931Z" stroke="white" stroke-opacity="0.5" stroke-width="3" stroke-miterlimit="22.9256" stroke-linecap="round" stroke-linejoin="round"/>
<path d="M49.5345 59.955H41.9138V47.7867" stroke="white" stroke-opacity="0.5" stroke-width="3" stroke-miterlimit="22.9256" stroke-linecap="round" stroke-linejoin="round"/>
<path d="M33.8286 15.7988H33.831" stroke="white" stroke-opacity="0.5" stroke-width="3" stroke-miterlimit="2.6131" stroke-linecap="round" stroke-linejoin="round"/>
</svg>
