<svg width="20" height="20" viewBox="0 0 20 20" fill="none" xmlns="http://www.w3.org/2000/svg">
<path d="M13.0006 10.0001C13.0006 10.5934 12.8247 11.1735 12.495 11.6668C12.1654 12.1602 11.6968 12.5447 11.1486 12.7718C10.6005 12.9988 9.99726 13.0582 9.41531 12.9425C8.83336 12.8267 8.2988 12.541 7.87924 12.1214C7.45968 11.7019 7.17395 11.1673 7.0582 10.5854C6.94244 10.0034 7.00185 9.40022 7.22892 8.85203C7.45598 8.30385 7.8405 7.83531 8.33386 7.50566C8.82721 7.17601 9.40723 7.00006 10.0006 7.00006C10.7955 7.00254 11.5571 7.31941 12.1192 7.88148C12.6813 8.44356 12.9981 9.2052 13.0006 10.0001ZM19.3757 5.87505V14.1251C19.3757 15.5175 18.8225 16.8529 17.838 17.8375C16.8534 18.8221 15.518 19.3752 14.1256 19.3752H5.87554C4.48314 19.3752 3.14777 18.8221 2.16319 17.8375C1.17862 16.8529 0.625488 15.5175 0.625488 14.1251V5.87505C0.625488 4.48265 1.17862 3.14728 2.16319 2.1627C3.14777 1.17813 4.48314 0.625 5.87554 0.625H14.1256C15.518 0.625 16.8534 1.17813 17.838 2.1627C18.8225 3.14728 19.3757 4.48265 19.3757 5.87505ZM14.5006 10.0001C14.5006 9.11007 14.2367 8.24003 13.7422 7.5C13.2478 6.75997 12.545 6.18319 11.7227 5.8426C10.9004 5.502 9.99559 5.41288 9.12267 5.58652C8.24974 5.76015 7.44791 6.18874 6.81857 6.81808C6.18923 7.44743 5.76064 8.24926 5.58701 9.12218C5.41337 9.9951 5.50249 10.8999 5.84308 11.7222C6.18368 12.5445 6.76046 13.2473 7.50049 13.7417C8.24052 14.2362 9.11056 14.5001 10.0006 14.5001C11.1941 14.5001 12.3387 14.026 13.1826 13.1821C14.0265 12.3382 14.5006 11.1936 14.5006 10.0001ZM16.0006 5.12505C16.0006 4.90254 15.9347 4.68503 15.811 4.50002C15.6874 4.31502 15.5117 4.17082 15.3062 4.08567C15.1006 4.00052 14.8744 3.97824 14.6562 4.02165C14.4379 4.06506 14.2375 4.17221 14.0801 4.32954C13.9228 4.48688 13.8156 4.68734 13.7722 4.90557C13.7288 5.1238 13.7511 5.35 13.8363 5.55557C13.9214 5.76114 14.0656 5.93684 14.2506 6.06046C14.4356 6.18408 14.6531 6.25006 14.8756 6.25006C15.174 6.25006 15.4602 6.13153 15.6711 5.92055C15.8821 5.70957 16.0006 5.42342 16.0006 5.12505Z" fill="white" fill-opacity="0.5"/>
</svg>
