<svg width="22" height="17" viewBox="0 0 22 17" fill="none" xmlns="http://www.w3.org/2000/svg">
<path d="M21.4603 2.00002C20.6902 2.35002 19.8602 2.58003 19.0002 2.69003C19.8802 2.16002 20.5602 1.32001 20.8802 0.310003C20.0502 0.810008 19.1302 1.16001 18.1602 1.36001C17.3702 0.500005 16.2602 0 15.0002 0C12.6502 0 10.7301 1.92002 10.7301 4.29004C10.7301 4.63005 10.7701 4.96005 10.8401 5.27005C7.28011 5.09005 4.11008 3.38003 2.00005 0.790008C1.63005 1.42001 1.42005 2.16002 1.42005 2.94003C1.42005 4.43005 2.17006 5.75006 3.33007 6.50007C2.62006 6.50007 1.96005 6.30006 1.38005 6.00006V6.03006C1.38005 8.11008 2.86006 9.8501 4.82008 10.2401C4.1908 10.4123 3.53016 10.4363 2.89006 10.3101C3.16167 11.1626 3.69361 11.9085 4.4111 12.4431C5.12858 12.9776 5.99554 13.2738 6.8901 13.2901C5.37372 14.4906 3.49407 15.1395 1.56005 15.1302C1.22005 15.1302 0.880043 15.1102 0.540039 15.0702C2.44006 16.2902 4.70008 17.0002 7.12011 17.0002C15.0002 17.0002 19.3302 10.4601 19.3302 4.79005C19.3302 4.60005 19.3302 4.42004 19.3202 4.23004C20.1602 3.63004 20.8802 2.87003 21.4603 2.00002Z" fill="white" fill-opacity="0.5"/>
</svg>
