<svg width="20" height="20" viewBox="0 0 20 20" fill="none" xmlns="http://www.w3.org/2000/svg">
<path d="M10.0001 0C8.68687 0 7.3865 0.25866 6.17323 0.761213C4.95996 1.26376 3.85756 2.00037 2.92896 2.92896C1.05358 4.80435 0 7.34791 0 10.0001C0 14.4201 2.87003 18.1702 6.84007 19.5002C7.34007 19.5802 7.50008 19.2702 7.50008 19.0002V17.3102C4.73005 17.9102 4.14004 15.9702 4.14004 15.9702C3.68004 14.8102 3.03003 14.5001 3.03003 14.5001C2.12002 13.8801 3.10003 13.9001 3.10003 13.9001C4.10004 13.9701 4.63005 14.9302 4.63005 14.9302C5.50006 16.4502 6.97007 16.0002 7.54008 15.7602C7.63008 15.1102 7.89008 14.6702 8.17008 14.4201C5.95006 14.1701 3.62004 13.3101 3.62004 9.5001C3.62004 8.39009 4.00004 7.50008 4.65005 6.79007C4.55005 6.54007 4.20004 5.50006 4.75005 4.15004C4.75005 4.15004 5.59006 3.88004 7.50008 5.17005C8.29008 4.95005 9.15009 4.84005 10.0001 4.84005C10.8501 4.84005 11.7101 4.95005 12.5001 5.17005C14.4101 3.88004 15.2502 4.15004 15.2502 4.15004C15.8002 5.50006 15.4502 6.54007 15.3502 6.79007C16.0002 7.50008 16.3802 8.39009 16.3802 9.5001C16.3802 13.3201 14.0401 14.1601 11.8101 14.4101C12.1701 14.7202 12.5001 15.3302 12.5001 16.2602V19.0002C12.5001 19.2702 12.6601 19.5902 13.1701 19.5002C17.1402 18.1602 20.0002 14.4201 20.0002 10.0001C20.0002 8.68687 19.7415 7.3865 19.239 6.17323C18.7364 4.95996 17.9998 3.85756 17.0712 2.92896C16.1426 2.00037 15.0402 1.26376 13.827 0.761213C12.6137 0.25866 11.3133 0 10.0001 0Z" fill="white" fill-opacity="0.5"/>
</svg>
