<svg width="22" height="17" viewBox="0 0 22 17" fill="none" xmlns="http://www.w3.org/2000/svg">
<path d="M18.2713 1.33006C16.9413 0.710053 15.5012 0.260049 14.0012 4.59987e-05C13.9881 -0.000374609 13.975 0.0020935 13.9629 0.00727683C13.9508 0.0124602 13.94 0.0202328 13.9312 0.0300465C13.7512 0.36005 13.5412 0.790054 13.4012 1.12006C11.8102 0.880055 10.1922 0.880055 8.60118 1.12006C8.46117 0.780054 8.25117 0.36005 8.06117 0.0300465C8.05117 0.0100463 8.02117 4.59987e-05 7.99117 4.59987e-05C6.49115 0.260049 5.06114 0.710053 3.72113 1.33006C3.71113 1.33006 3.70113 1.34006 3.69113 1.35006C0.971099 5.4201 0.221091 9.38014 0.591095 13.3002C0.591095 13.3202 0.601095 13.3402 0.621095 13.3502C2.42111 14.6702 4.15113 15.4702 5.86115 16.0002C5.89115 16.0102 5.92115 16.0002 5.93115 15.9802C6.33115 15.4302 6.69116 14.8502 7.00116 14.2402C7.02116 14.2002 7.00116 14.1602 6.96116 14.1502C6.39115 13.9302 5.85115 13.6702 5.32114 13.3702C5.28114 13.3502 5.28114 13.2902 5.31114 13.2602C5.42114 13.1802 5.53114 13.0902 5.64115 13.0102C5.66115 12.9902 5.69115 12.9902 5.71115 13.0002C9.15118 14.5702 12.8612 14.5702 16.2613 13.0002C16.2813 12.9902 16.3113 12.9902 16.3313 13.0102C16.4413 13.1002 16.5513 13.1802 16.6613 13.2702C16.7013 13.3002 16.7013 13.3602 16.6513 13.3802C16.1313 13.6902 15.5812 13.9402 15.0112 14.1602C14.9712 14.1702 14.9612 14.2202 14.9712 14.2502C15.2912 14.8602 15.6512 15.4402 16.0413 15.9902C16.0713 16.0002 16.1013 16.0102 16.1313 16.0002C17.8513 15.4702 19.5813 14.6702 21.3813 13.3502C21.4013 13.3402 21.4113 13.3202 21.4113 13.3002C21.8513 8.77013 20.6813 4.8401 18.3113 1.35006C18.3013 1.34006 18.2913 1.33006 18.2713 1.33006ZM7.52117 10.9102C6.49116 10.9102 5.63115 9.96015 5.63115 8.79013C5.63115 7.62012 6.47115 6.67011 7.52117 6.67011C8.58118 6.67011 9.42118 7.63012 9.41118 8.79013C9.41118 9.96015 8.57118 10.9102 7.52117 10.9102ZM14.4912 10.9102C13.4612 10.9102 12.6012 9.96015 12.6012 8.79013C12.6012 7.62012 13.4412 6.67011 14.4912 6.67011C15.5512 6.67011 16.3913 7.63012 16.3813 8.79013C16.3813 9.96015 15.5512 10.9102 14.4912 10.9102Z" fill="white" fill-opacity="0.5"/>
</svg>
